
<svg width="34px" height="34px" viewBox="0 0 34 34" version="1.1" xmlns="http://www.w3.org/2000/svg" xmlns:xlink="http://www.w3.org/1999/xlink">
    <g id="Symbols" stroke="none" stroke-width="1" fill="none" fill-rule="evenodd">
        <g id="Create-Rule-Bar" transform="translate(-204.000000, -19.000000)" fill="#FFFFFF" fill-rule="nonzero">
            <g id="Group" transform="translate(204.000000, 19.000000)">
                <polygon id="Path" points="13.9997583 10 14.380423 8.3800894 16 8.00024163 14.380423 7.6199106 13.9997583 6 13.619577 7.6199106 12 8.00024163 13.619577 8.3800894"></polygon>
                <polygon id="Path" points="8 6 8.56968215 3.57060049 11 3 8.56968215 2.42939951 8 0 7.43058951 2.42939951 5 3 7.43058951 3.57060049"></polygon>
                <polygon id="Path" points="5.5 14 6.35584715 10.35562 10 9.5 6.35584715 8.64438003 5.5 5 4.64583593 8.64438003 1 9.5 4.64583593 10.35562"></polygon>
                <polygon id="Path" points="30.3547322 24.6440995 29.4990184 21 28.6449874 24.6440995 25 25.5 28.6449874 26.35562 29.4990184 30 30.3547322 26.35562 34 25.5"></polygon>
                <path d="M20.4930672,18.6515512 L17.73178,16.3152965 C17.1474466,15.8208525 16.2839432,15.9188676 15.8134613,16.5326225 L15.0983807,17.4649948 C14.7685235,17.8955515 14.7212153,18.468353 14.9211052,18.9439584 C11.426282,20.5001875 5.59516508,20.1657348 1.37850305,19.2729507 C0.950650403,19.1823072 0.43078084,18.8363875 0.0206037543,19.2068792 C-0.0916880713,19.8978996 0.277679253,20.6123998 0.579983404,21.2078622 C0.803787251,21.6430603 1.26101253,22.6505138 1.67144955,22.894323 C1.94334133,23.0545873 2.34572038,23.1323988 2.76421537,23.1804508 C3.11720681,23.2205851 3.48267511,23.2399697 3.79433691,23.2694561 C4.88450339,23.3729317 6.05057082,23.2656338 6.96866047,23.2874756 C6.31986325,23.5632285 5.65469014,23.7849229 4.97781997,23.9615685 C4.59935493,24.0593106 4.26351919,24.1109119 3.97681113,24.4087796 C3.21598202,25.2051867 3.8876535,26.3204841 4.67525589,26.7414851 C5.39631497,27.12672 6.7768286,26.6937061 7.51114435,26.4537192 C7.11942264,26.9926659 5.73604973,27.4933894 6.31700397,28.3610554 C6.79814325,29.0823812 7.87219377,28.5991311 8.49187829,28.3976404 C10.0483678,27.8909104 11.2609635,26.9246833 12.3513899,26.0673922 C12.3485306,26.1353748 12.295244,26.1457497 12.2819873,26.2000812 C11.4291413,27.3762627 10.529507,28.4828235 9.42478422,29.2595729 C9.0689335,29.5104807 8.57843657,29.5970289 8.29068876,30.021033 C8.29874674,30.009293 9.52199982,30.8668572 9.63559132,30.9416654 C9.95661078,31.1516198 10.4564654,31.1838364 10.7018438,31.4808851 C11.0800489,31.142337 11.4439576,30.744816 11.8172239,30.3953471 C11.9903405,30.9654183 11.5827628,31.6799186 11.737164,32.3035023 C11.761078,32.4006984 13.1870802,32.9098856 13.3149682,32.8593764 C13.7493192,32.6890103 14.2291588,31.5671602 14.447504,31.1633597 C15.1524471,29.8613148 15.6642587,28.4568863 16.1960853,27.0707504 C16.0923713,29.7359974 15.4256386,31.7492663 14.4890936,33.4526546 C15.4591702,33.5392028 16.487992,34.2152068 17.3182237,33.9304442 C17.8006627,33.7649925 18.1432567,32.7215 18.309615,32.0048155 C18.987265,29.0875686 18.8021914,24.9327101 18.6207569,22.0913634 C19.1133333,22.207125 19.6490589,22.037578 19.9846347,21.5988306 L20.6997153,20.6667313 C21.1704572,20.0532494 21.0774005,19.1462682 20.4930672,18.6515512 Z" id="Path"></path>
                <path d="M31.5091805,0.290798135 C30.9240212,-0.186535987 30.0373411,-0.0632898818 29.5388415,0.565516777 L18.3322286,14.6982958 C17.8334539,15.3271024 17.9047074,16.2317456 18.4893165,16.7090797 C19.074751,17.1864139 19.9614311,17.0634472 20.4599307,16.43492 L31.6679191,2.3015821 C32.1666938,1.67305491 32.0954403,0.768411726 31.5091805,0.290798135 Z" id="Path"></path>
            </g>
        </g>
    </g>
</svg>