
<svg width="16px" height="17px" viewBox="0 0 16 17" version="1.1" xmlns="http://www.w3.org/2000/svg" xmlns:xlink="http://www.w3.org/1999/xlink">
    <g id="Symbols" stroke="none" stroke-width="1" fill="none" fill-rule="evenodd">
        <g id="Rule" transform="translate(-36.000000, -102.000000)" fill="#FFFFFF" fill-rule="nonzero">
            <path d="M36,117.422222 C36,118.231944 36.7678571,118.888889 37.7142857,118.888889 L50.2857143,118.888889 C51.2321429,118.888889 52,118.231944 52,117.422222 L52,109.111111 L36,109.111111 L36,117.422222 Z M38.6666667,110.555556 C38.6666667,110.25 38.9166667,110 39.2222222,110 L42.5555556,110 C42.8611111,110 43.1111111,110.25 43.1111111,110.555556 L43.1111111,113.888889 C43.1111111,114.194444 42.8611111,114.444444 42.5555556,114.444444 L39.2222222,114.444444 C38.9166667,114.444444 38.6666667,114.194444 38.6666667,113.888889 L38.6666667,110.555556 Z M50.2857143,104.133333 L48.5714286,104.133333 L48.5714286,102.533333 C48.5714286,102.24 48.3142857,102 48,102 L46.8571429,102 C46.5428571,102 46.2857143,102.24 46.2857143,102.533333 L46.2857143,104.133333 L41.7142857,104.133333 L41.7142857,102.533333 C41.7142857,102.24 41.4571429,102 41.1428571,102 L40,102 C39.6857143,102 39.4285714,102.24 39.4285714,102.533333 L39.4285714,104.133333 L37.7142857,104.133333 C36.7678571,104.133333 36,104.85 36,105.733333 L36,107.333333 L52,107.333333 L52,105.733333 C52,104.85 51.2321429,104.133333 50.2857143,104.133333 Z" id="Shape"></path>
        </g>
    </g>
</svg>