
<svg width="14px" height="14px" viewBox="0 0 14 14" version="1.1" xmlns="http://www.w3.org/2000/svg" xmlns:xlink="http://www.w3.org/1999/xlink">
    <g id="Symbols" stroke="none" stroke-width="1" fill="none" fill-rule="evenodd">
        <g id="PopUp_RuleInfo" transform="translate(-112.000000, -575.000000)" fill="#FFBA00" fill-rule="nonzero">
            <g id="Btn_Delete" transform="translate(88.000000, 567.000000)">
                <g id="trash-alt" transform="translate(24.000000, 8.000000)">
                    <path d="M1,12.6874895 C1,13.4123621 1.67157288,13.9999874 2.5,13.9999874 L11.5,13.9999874 C12.3284271,13.9999874 13,13.4123621 13,12.6874895 L13,3.50000405 L1,3.50000405 L1,12.6874895 Z M9.5,5.68750058 C9.5,5.44587639 9.72385763,5.25000127 10,5.25000127 C10.2761424,5.25000127 10.5,5.44587639 10.5,5.68750058 L10.5,11.8124909 C10.5,12.0541151 10.2761424,12.2499902 10,12.2499902 C9.72385763,12.2499902 9.5,12.0541151 9.5,11.8124909 L9.5,5.68750058 Z M6.5,5.68750058 C6.5,5.44587639 6.72385763,5.25000127 7,5.25000127 C7.27614237,5.25000127 7.5,5.44587639 7.5,5.68750058 L7.5,11.8124909 C7.5,12.0541151 7.27614237,12.2499902 7,12.2499902 C6.72385763,12.2499902 6.5,12.0541151 6.5,11.8124909 L6.5,5.68750058 Z M3.5,5.68750058 C3.5,5.44587639 3.72385763,5.25000127 4,5.25000127 C4.27614237,5.25000127 4.5,5.44587639 4.5,5.68750058 L4.5,11.8124909 C4.5,12.0541151 4.27614237,12.2499902 4,12.2499902 C3.72385763,12.2499902 3.5,12.0541151 3.5,11.8124909 L3.5,5.68750058 Z M13.5,0.875008205 L9.75,0.875008205 L9.45625,0.36368089 C9.32932589,0.140704648 9.06906469,-0.000169068696 8.784375,9.59141072e-06 L5.2125,9.59141072e-06 C4.92834575,-0.000946209023 4.66857544,0.140318845 4.54375,0.36368089 L4.25,0.875008205 L0.5,0.875008205 C0.223857625,0.875008205 3.38176876e-17,1.07088332 0,1.31250751 L0,2.18750613 C3.38176876e-17,2.42913032 0.223857625,2.62500543 0.5,2.62500543 L13.5,2.62500543 C13.7761424,2.62500543 14,2.42913032 14,2.18750613 L14,1.31250751 C14,1.07088332 13.7761424,0.875008205 13.5,0.875008205 Z" id="Shape"></path>
                </g>
            </g>
        </g>
    </g>
</svg>