
<svg width="16px" height="13px" viewBox="0 0 16 13" version="1.1" xmlns="http://www.w3.org/2000/svg" xmlns:xlink="http://www.w3.org/1999/xlink">
    <g id="Symbols" stroke="none" stroke-width="1" fill="none" fill-rule="evenodd">
        <g id="Rule" transform="translate(-36.000000, -239.000000)" fill="#FFFFFF" fill-rule="nonzero">
            <g id="noun_description_138376" transform="translate(36.000000, 239.000000)">
                <path d="M2.66666667,13 L13.3333333,13 C14.8053333,13 16,12.0293333 16,10.8333333 L16,2.16666667 C16,0.970666667 14.8053333,0 13.3333333,0 L2.66666667,0 C1.19466667,0 0,0.970666667 0,2.16666667 L0,10.8333333 C0,12.0293333 1.19466667,13 2.66666667,13 Z M1.77066667,2.16666667 C1.77066667,1.768 2.176,1.43866667 2.66666667,1.43866667 L13.3333333,1.43866667 C13.824,1.43866667 14.2293333,1.768 14.2293333,2.16666667 L14.2293333,10.8333333 C14.2293333,11.232 13.824,11.5613333 13.3333333,11.5613333 L2.66666667,11.5613333 C2.176,11.5613333 1.77066667,11.232 1.77066667,10.8333333 L1.77066667,2.16666667 Z" id="Shape"></path>
                <rect id="Rectangle" x="4" y="5.6875" width="9" height="1.625"></rect>
                <rect id="Rectangle" x="4" y="2.4375" width="9" height="1.625"></rect>
                <rect id="Rectangle" x="4" y="8.9375" width="5" height="1.625"></rect>
            </g>
        </g>
    </g>
</svg> 