
<svg width="16px" height="14px" viewBox="0 0 16 14" version="1.1" xmlns="http://www.w3.org/2000/svg" xmlns:xlink="http://www.w3.org/1999/xlink">
    <g id="Symbols" stroke="none" stroke-width="1" fill="none" fill-rule="evenodd">
        <g id="PopUp_RuleInfo" transform="translate(-878.000000, -575.000000)" fill="#212121" fill-rule="nonzero">
            <g id="Btn_Edit" transform="translate(851.000000, 567.000000)">
                <path d="M38.5051809,10.0764131 L40.9235869,12.4948191 C41.025471,12.5967031 41.025471,12.762935 40.9235869,12.8648191 L35.0679342,18.7204718 L32.5798181,18.9966313 C32.2473543,19.0341675 31.9658325,18.7526457 32.0033687,18.4201819 L32.2795282,15.9320658 L38.1351809,10.0764131 C38.237065,9.97452898 38.4032969,9.97452898 38.5051809,10.0764131 Z M42.7032216,9.56719818 L41.4328018,8.29677839 C41.0370973,7.90107387 40.3940774,7.90107387 39.9957696,8.29677839 L39.0741946,9.2183534 C38.9752685,9.31727953 38.9752685,9.47868532 39.0741946,9.57761145 L41.4223885,11.9258054 C41.5213147,12.0247315 41.6827205,12.0247315 41.7816466,11.9258054 L42.7032216,11.0042304 C43.0989261,10.6059226 43.0989261,9.9629027 42.7032216,9.56719818 Z M37.2857143,17.1888393 L37.2857143,20.1428571 L28.7142857,20.1428571 L28.7142857,10.8571429 L34.8696429,10.8571429 C34.9553571,10.8571429 35.0357143,10.8194196 35.0973214,10.7555804 L36.16875,9.59486607 C36.3723214,9.37433036 36.2276786,9 35.9410714,9 L28.2857143,9 C27.5758929,9 27,9.62388393 27,10.3928571 L27,20.6071429 C27,21.3761161 27.5758929,22 28.2857143,22 L37.7142857,22 C38.4241071,22 39,21.3761161 39,20.6071429 L39,16.028125 C39,15.7176339 38.6544643,15.5638393 38.4508929,15.7814732 L37.3794643,16.9421875 C37.3205357,17.0089286 37.2857143,17.0959821 37.2857143,17.1888393 Z" id="Shape"></path>
            </g>
        </g>
    </g>
</svg>