
<svg width="16px" height="14px" viewBox="0 0 16 14" version="1.1" xmlns="http://www.w3.org/2000/svg" xmlns:xlink="http://www.w3.org/1999/xlink">
    <g id="Symbols" stroke="none" stroke-width="1" fill="none" fill-rule="evenodd">
        <g id="PopUp_RuleInfo" transform="translate(-88.000000, -253.000000)" fill="#FFFFFF" fill-rule="nonzero">
            <g id="grp_RuleLog" transform="translate(88.000000, 250.000000)">
                <g id="Icon_Log" transform="translate(0.000000, 3.000000)">
                    <path d="M15.1578566,10.1052632 L5.05266967,10.1052632 C4.58706413,10.1052632 4.21052632,10.482495 4.21052632,10.9473684 L4.21052632,11.7896515 C4.21052632,12.2539915 4.58706413,12.6315789 5.05266967,12.6315789 L15.1578566,12.6315789 C15.6223955,12.6315789 16,12.2539915 16,11.7896515 L16,10.9473684 C16,10.4826728 15.6229288,10.1052632 15.1578566,10.1052632 Z" id="Path"></path>
                    <path d="M15.1578566,5.05263158 L5.05266967,5.05263158 C4.58706413,5.05263158 4.21052632,5.42986345 4.21052632,5.89491461 L4.21052632,6.73684211 C4.21052632,7.20153773 4.58706413,7.57894737 5.05266967,7.57894737 L15.1578566,7.57894737 C15.6223955,7.57894737 16,7.2017155 16,6.73684211 L16,5.89491461 C16,5.42986345 15.6229288,5.05263158 15.1578566,5.05263158 Z" id="Path"></path>
                    <path d="M15.1578566,0.842105263 L5.05266967,0.842105263 C4.58706413,0.842105263 4.21052632,1.2191859 4.21052632,1.68426979 L4.21052632,2.52643431 C4.21052632,2.9915182 4.58706413,3.36842105 5.05266967,3.36842105 L15.1578566,3.36842105 C15.6223955,3.36842105 16,2.99134042 16,2.52643431 L16,1.68426979 C16,1.2191859 15.6229288,0.842105263 15.1578566,0.842105263 Z" id="Path"></path>
                    <path d="M0.613514194,8.30285454 L2.28184495,7.00924569 C2.6206148,6.74627699 2.60548706,6.35343549 2.24776931,6.13160897 L0.647589827,5.13869829 C0.290024892,4.91668217 0,5.13907748 0,5.63467964 L0,7.88005698 C0,8.37660712 0.274897145,8.56506486 0.613514194,8.30285454 Z" id="Path"></path>
                    <path d="M3.03097768,11.3654233 L0.814877152,10.2113203 C0.365121792,9.9761689 0,10.1453426 0,10.5873935 L0,12.9915209 C0,13.433741 0.365121792,13.6027455 0.814877152,13.367594 L3.03077472,12.2141678 C3.480936,11.9805389 3.480936,11.5993905 3.03097768,11.3654233 Z" id="Path"></path>
                    <path d="M3.03097768,1.25989799 L0.81508011,0.10611959 C0.365121792,-0.129034659 0,0.0398027081 0,0.482366389 L0,2.88618418 C0,3.32874786 0.365121792,3.49690853 0.814877152,3.26293851 L3.03077472,2.10882175 C3.480936,1.87451338 3.480936,1.49369884 3.03097768,1.25989799 Z" id="Path"></path>
                </g>
            </g>
        </g>
    </g>
</svg>