
<svg width="22px" height="18px" viewBox="0 0 22 18" version="1.1" xmlns="http://www.w3.org/2000/svg" xmlns:xlink="http://www.w3.org/1999/xlink">
    <g id="Symbols" stroke="none" stroke-width="1" fill="none" fill-rule="evenodd">
        <g id="Storage-Activity" transform="translate(-18.000000, -77.000000)">
            <g id="Next-Copy-3" transform="translate(19.000000, 76.000000)">
                <path d="M11.8670526,16.6711045 C8.13095826,16.6595848 5.09291681,13.6634929 5.0813971,9.97914596 C5.06987738,6.29479904 8.08924168,3.3173843 11.825336,3.32890402 C15.5614303,3.34042373 18.5994718,6.33651562 18.6109915,10.0208625 C18.6124315,10.4814059 18.9921866,10.8559174 19.4591984,10.8573574 C19.9262102,10.8587973 20.3036308,10.4866205 20.3021908,10.0260771 C20.2877912,5.42064346 16.4902394,1.6755286 11.8201214,1.66112896 C7.15000352,1.64672932 3.37579815,5.36849774 3.3901978,9.97393139 C3.40459744,14.579365 7.20214925,18.3244799 11.8722672,18.3388795 C12.339279,18.3403195 12.7166995,17.9681427 12.7152595,17.5075993 C12.7138196,17.0470559 12.3340644,16.6725444 11.8670526,16.6711045 Z" id="Path" fill="#FFBA00" fill-rule="nonzero" transform="translate(11.846176, 9.999986) scale(-1, 1) rotate(-12.000000) translate(-11.846176, -9.999986) "></path>
                <path d="M12.200916,5 C11.7596014,5 11.4018453,5.35796464 11.4018453,5.7995364 L11.4018453,9.46940849 L9.23636377,11.6281568 C9.08508958,11.778283 9,11.9826412 9,12.1958276 C9,12.409014 9.08508958,12.6133722 9.23636377,12.7634985 C9.38640255,12.9148608 9.59064171,13 9.80370394,13 C10.0167662,13 10.2210053,12.9148608 10.3710441,12.7634985 L12.7682561,10.3648893 C12.9178314,10.2140017 13.0012146,10.0097376 12.9999866,9.79721842 L12.9999866,5.7995364 C12.9999866,5.35796464 12.6422305,5 12.200916,5 Z" id="Path" fill="#FFBA00" fill-rule="nonzero"></path>
                <polyline id="Path-3" stroke="#FFBA00" stroke-width="2" stroke-linecap="round" stroke-linejoin="round" transform="translate(1.500000, 14.500000) scale(-1, 1) translate(-1.500000, -14.500000) " points="0 11 3 14.3774047 0 18"></polyline>
                <path d="M0,14 L8,14" id="Path-4" stroke="#FFBA00" stroke-width="2" stroke-linecap="round" transform="translate(4.000000, 14.000000) scale(-1, 1) translate(-4.000000, -14.000000) "></path>
            </g>
        </g>
    </g>
</svg>