
<svg width="19px" height="14px" viewBox="0 0 19 14" version="1.1" xmlns="http://www.w3.org/2000/svg" xmlns:xlink="http://www.w3.org/1999/xlink">
    <g id="Symbols" stroke="none" stroke-width="1" fill="none" fill-rule="evenodd">
        <g id="Rule" transform="translate(-35.000000, -136.000000)">
            <g id="Next-Copy-3" transform="translate(36.000000, 135.000000)">
                <path d="M10.7342226,13.3422213 C7.68031189,13.3191819 5.185951,10.9087201 5.16291157,7.95830426 C5.13987214,5.00788841 7.59687873,2.63478094 10.6507894,2.65782037 C13.7047001,2.6808598 16.199061,5.09132157 16.2221004,8.04173742 C16.2249803,8.4105394 16.5367754,8.71184712 16.9185143,8.71472705 C17.3002531,8.71760698 17.6073789,8.42096854 17.604499,8.05216656 C17.5756997,4.36414675 14.4577486,1.35106955 10.6403603,1.32227026 C6.82297192,1.29347097 3.75171368,4.25985531 3.78051297,7.94787512 C3.80931226,11.6358949 6.92726337,14.6489721 10.7446517,14.6777714 C11.1263905,14.6806514 11.4335164,14.3840129 11.4306364,14.0152109 C11.4277565,13.646409 11.1159614,13.3451012 10.7342226,13.3422213 Z" id="Path" fill="#FFFFFF" fill-rule="nonzero" transform="translate(10.692416, 7.999927) scale(-1, 1) rotate(-12.000000) translate(-10.692416, -7.999927) "></path>
                <path d="M11.200916,4.8 C10.7596014,4.8 10.4018453,5.06847348 10.4018453,5.3996523 L10.4018453,8.15205637 L8.23636377,9.77111758 C8.08508958,9.88371226 8,10.0369809 8,10.1968707 C8,10.3567605 8.08508958,10.5100292 8.23636377,10.6226239 C8.38640255,10.7361456 8.59064171,10.8 8.80370394,10.8 C9.01676618,10.8 9.22100534,10.7361456 9.37104412,10.6226239 L11.7682561,8.82366695 C11.9178314,8.71050127 12.0012146,8.55730318 11.9999866,8.39791381 L11.9999866,5.3996523 C11.9999866,5.06847348 11.6422305,4.8 11.200916,4.8 Z" id="Path" fill="#FFFFFF" fill-rule="nonzero"></path>
                <polyline id="Path-3" stroke="#FFFFFF" stroke-width="2" stroke-linecap="round" stroke-linejoin="round" transform="translate(1.500000, 11.300000) scale(-1, 1) translate(-1.500000, -11.300000) " points="0 8.8 3 11.2124319 0 13.8"></polyline>
                <path d="M1,11.8 L7,11.8" id="Path-4" stroke="#FFFFFF" stroke-width="2" stroke-linecap="round" transform="translate(4.000000, 11.800000) scale(-1, 1) translate(-4.000000, -11.800000) "></path>
            </g>
        </g>
    </g>
</svg>