
<svg width="22px" height="18px" viewBox="0 0 22 18" version="1.1" xmlns="http://www.w3.org/2000/svg" xmlns:xlink="http://www.w3.org/1999/xlink">
    <g id="Symbols" stroke="none" stroke-width="1" fill="none" fill-rule="evenodd">
        <g id="Storage-Activity" transform="translate(-20.000000, -127.000000)">
            <g id="Next-Copy-2" transform="translate(19.000000, 126.000000)">
                <path d="M10.6358778,16.6828593 C6.75670606,16.6409275 3.57802359,13.6149414 3.53609183,9.92413024 C3.49416007,6.23331904 6.60485771,3.2753178 10.4840295,3.31724957 C14.3632012,3.35918133 17.5418837,6.38516738 17.5838155,10.0759786 C17.5890569,10.53733 17.9863922,10.9155782 18.4712887,10.9208197 C18.9561852,10.9260612 19.3450224,10.556311 19.3397809,10.0949596 C19.2873662,5.48144563 15.3140131,1.69896306 10.4650484,1.64654835 C5.61608372,1.59413365 1.72771167,5.29163519 1.78012638,9.9051492 C1.83254108,14.5186632 5.80589416,18.3011458 10.6548589,18.3535605 C11.1397553,18.3588019 11.5285925,17.9890518 11.5233511,17.5277004 C11.5181096,17.066349 11.1207743,16.6881007 10.6358778,16.6828593 Z" id="Path" fill="#FFBA00" fill-rule="nonzero" transform="translate(10.559718, 9.999807) rotate(-12.000000) translate(-10.559718, -9.999807) "></path>
                <path d="M10.56,5 C10.0739894,5 9.68,5.37309604 9.68,5.83333333 L9.68,9.65833333 L7.2952,11.9083333 C7.12860487,12.0648055 7.03489747,12.2778021 7.03489747,12.5 C7.03489747,12.7221979 7.12860487,12.9351945 7.2952,13.0916667 C7.46043461,13.2494272 7.68535897,13.3381653 7.92,13.3381653 C8.15464103,13.3381653 8.37956539,13.2494272 8.5448,13.0916667 L11.1848,10.5916667 C11.3495241,10.434401 11.4413523,10.2215025 11.44,10 L11.44,5.83333333 C11.44,5.37309604 11.0460106,5 10.56,5 Z" id="Path" fill="#FFBA00" fill-rule="nonzero"></path>
                <polyline id="Path-3" stroke="#FFBA00" stroke-width="2" stroke-linecap="round" stroke-linejoin="round" points="18.48 10.8333333 22 14.0499092 18.48 17.5"></polyline>
                <path d="M14.08,14.1666667 L22,14.1666667" id="Path-4" stroke="#FFBA00" stroke-width="2" stroke-linecap="round"></path>
            </g>
        </g>
    </g>
</svg>