
<svg width="16px" height="18px" viewBox="0 0 16 18" version="1.1" xmlns="http://www.w3.org/2000/svg" xmlns:xlink="http://www.w3.org/1999/xlink">
    <g id="Symbols" stroke="none" stroke-width="1" fill="none" fill-rule="evenodd">
        <g id="Rule" transform="translate(-36.000000, -201.000000)" fill="#FFFFFF" fill-rule="nonzero">
            <path d="M47.4356445,203.109557 C47.435545,203.266988 47.3613051,203.414741 47.2361831,203.506527 L45.0209265,205.130495 C44.875268,205.236328 44.6840477,205.25034 44.5251117,205.166826 C44.3661757,205.083313 44.2660302,204.916202 44.2654445,204.733525 L44.2654445,203.753731 C44.2021846,203.771745 44.1369374,203.781446 44.0712786,203.782601 C40.646848,203.783189 37.8083376,206.495744 37.5773449,209.988374 C37.3463523,213.481004 39.8018629,216.55944 43.1950532,217.031209 C46.5882436,217.502977 49.7588463,215.206762 50.4487465,211.777935 C50.4839685,211.48013 50.6800272,211.22788 50.9558508,211.125491 C51.2316744,211.023103 51.5403857,211.087978 51.7543303,211.29329 C51.9682749,211.498602 52.051092,211.809457 51.9685361,212.097315 C51.1141525,216.346955 47.1846853,219.193047 42.9793791,218.608114 C38.774073,218.02318 35.7313593,214.207298 36.0187837,209.878797 C36.3062081,205.550297 39.8254568,202.189748 44.0695135,202.191113 C44.1351753,202.192229 44.2004275,202.201931 44.2636794,202.219984 L44.2636794,201.487394 C44.264265,201.304717 44.3644106,201.137605 44.5233465,201.054092 C44.6822825,200.970579 44.8735029,200.984591 45.0191613,201.090424 L47.234418,202.714392 C47.3597038,202.805415 47.4345703,202.952437 47.4356445,203.109557 Z M50.3227517,209.554816 C50.3888317,209.960783 50.7381147,210.259955 51.1495447,210.262991 C51.1936645,210.263953 51.2377767,210.260757 51.2812969,210.253447 C51.6191804,210.203405 51.8933522,209.954278 51.9753406,209.6228 C52.057329,209.291323 51.9308896,208.943172 51.6552695,208.741484 C51.3796495,208.539796 51.0094574,208.524532 50.7181583,208.702844 C50.4268592,208.881155 50.2721682,209.217714 50.3265706,209.554816 L50.3227517,209.554816 Z M48.6341509,206.052628 C49.043438,206.05137 49.3925443,205.755987 49.4615516,205.352554 C49.5305589,204.94912 49.2994787,204.554494 48.913879,204.417269 C48.5282794,204.280044 48.0998524,204.439967 47.8984839,204.796297 C47.6971155,205.152626 47.7811336,205.602147 48.0976115,205.861687 C48.2488534,205.985718 48.4385562,206.053229 48.6341509,206.052628 Z M49.9003616,206.162374 C49.6037464,206.330588 49.4378682,206.661065 49.4802319,206.999394 C49.5225956,207.337722 49.7648375,207.617106 50.0937725,207.707007 C50.4227075,207.796907 50.7733952,207.679576 50.9819801,207.409834 C51.190565,207.140092 51.2158671,206.771194 51.0460642,206.475503 C50.8153479,206.073741 50.3033814,205.933816 49.9003616,206.162374 Z M48.6315789,210.263158 C48.6315789,212.588567 46.7464621,214.473684 44.4210526,214.473684 C42.0956432,214.473684 40.2105263,212.588567 40.2105263,210.263158 C40.2105263,207.937748 42.0956432,206.052632 44.4210526,206.052632 C45.5377536,206.052632 46.6087175,206.496239 47.3983443,207.285866 C48.1879712,208.075493 48.6315789,209.146457 48.6315789,210.263158 Z M45.9123477,211.072108 L44.6733911,209.955723 L44.6733911,208.229927 C44.6733911,207.957604 44.4283915,207.736842 44.1261692,207.736842 C43.8239469,207.736842 43.5789474,207.957604 43.5789474,208.229927 L43.5789474,210.365469 L45.137759,211.770066 C45.2705397,211.913537 45.4818989,211.977073 45.6836812,211.934176 C45.8854636,211.891278 46.0430148,211.749314 46.0906221,211.567494 C46.1382294,211.385674 46.0677167,211.195225 45.908494,211.075581 L45.9123477,211.072108 Z" id="Shape"></path>
        </g>
    </g>
</svg>