
<svg width="16px" height="15px" viewBox="0 0 16 15" version="1.1" xmlns="http://www.w3.org/2000/svg" xmlns:xlink="http://www.w3.org/1999/xlink">
    <g id="Page" stroke="none" stroke-width="1" fill="none" fill-rule="evenodd">
        <g id="main-page" transform="translate(-364.000000, -698.000000)" fill="#999999" fill-rule="nonzero">
            <g id="grp_searchBar" transform="translate(363.000000, 698.000000)">
                <path d="M7.27020672,1.4695797 C4.67669247,1.4695797 2.56755168,3.44689919 2.56755168,5.8783188 C2.56755168,8.30973841 4.67669247,10.2870579 7.27020672,10.2870579 C9.86372098,10.2870579 11.9728618,8.30973841 11.9728618,5.8783188 C11.9728618,3.44689919 9.86372098,1.4695797 7.27020672,1.4695797 Z M15.891741,15 L11.1130597,10.5199863 C10.0510434,11.2944548 8.71705692,11.7566376 7.27020672,11.7566376 C3.81297149,11.7566376 1,9.11947683 1,5.8783188 C1,2.63716077 3.81297149,0 7.27020672,0 C10.727442,0 13.5404134,2.63716077 13.5404134,5.8783188 C13.5404134,7.23474086 13.0482022,8.48535319 12.2213187,9.48099344 L17,13.9610072 L15.891741,15 Z" id="Icon_Search"></path>
            </g>
        </g>
    </g>
</svg>