
<svg width="16px" height="16px" viewBox="0 0 16 16" version="1.1" xmlns="http://www.w3.org/2000/svg" xmlns:xlink="http://www.w3.org/1999/xlink">
    <g id="Symbols" stroke="none" stroke-width="1" fill="none" fill-rule="evenodd">
        <g id="PopUp_RuleInfo" transform="translate(-88.000000, -109.000000)" fill="#FFFFFF" fill-rule="nonzero">
            <g id="grp_ruleType" transform="translate(88.000000, 107.000000)">
                <path d="M5.49116608,9 L1.48409894,9 C0.667844523,9 0,8.32978723 0,7.5106383 L0,3.4893617 C0,2.67021277 0.667844523,2 1.48409894,2 L5.51590106,2 C6.33215548,2 7,2.67021277 7,3.4893617 L7,7.53546099 C6.97526502,8.35460993 6.30742049,9 5.49116608,9 Z M14.5159011,9 L10.4840989,9 C9.66784452,9 9,8.32978723 9,7.5106383 L9,3.4893617 C9,2.67021277 9.66784452,2 10.4840989,2 L14.5159011,2 C15.3321555,2 16,2.67021277 16,3.4893617 L16,7.53546099 C16,8.35460993 15.3321555,9 14.5159011,9 Z M5.51590106,18 L1.48409894,18 C0.667844523,18 0,17.3297872 0,16.5106383 L0,12.4893617 C0,11.6702128 0.667844523,11 1.48409894,11 L5.51590106,11 C6.33215548,11 7,11.6702128 7,12.4893617 L7,16.535461 C6.97526502,17.3297872 6.30742049,18 5.51590106,18 Z M14.5106383,18 L10.4893617,18 C9.67021277,18 9,17.3297872 9,16.5106383 L9,12.4893617 C9,11.6702128 9.67021277,11 10.4893617,11 L14.5106383,11 C15.3297872,11 16,11.6702128 16,12.4893617 L16,16.535461 C16,17.3297872 15.3297872,18 14.5106383,18 Z" id="Icon_RuleType"></path>
            </g>
        </g>
    </g>
</svg>