
<svg width="80px" height="69px" viewBox="0 0 80 69" version="1.1" xmlns="http://www.w3.org/2000/svg" xmlns:xlink="http://www.w3.org/1999/xlink">
    <g id="Page-1" stroke="none" stroke-width="1" fill="none" fill-rule="evenodd">
        <g id="Log" transform="translate(-674.000000, -361.000000)" fill="#FFFFFF" fill-rule="nonzero">
            <g id="Group" transform="translate(674.000000, 361.000000)">
                <path d="M39.9996483,1.00568888e-13 C37.8615644,1.00568888e-13 35.867658,1.10115778 34.7790444,2.93028154 L0.817350127,60.1260864 C-0.271485683,61.9604205 -0.273413974,64.2370613 0.817350127,66.0696262 C1.81933286,67.7516299 3.64585111,69.0052154 5.78803115,68.9999077 L74.2112654,68.9999077 C76.3532236,69.0087538 78.1800795,67.751453 79.1819468,66.0696262 C80.2736439,64.2369728 80.2717245,61.960509 79.1819468,60.1260864 L45.2202522,2.93028154 C44.1316296,1.10116663 42.1377322,0 39.9996483,0 Z M39.9996483,3.53845318 C40.8216957,3.53845318 41.7353769,4.06723077 42.1378743,4.72715229 L76.1273381,61.9230014 C76.5247971,62.5920344 76.5256324,63.5765205 76.1273381,64.2451112 C75.6392138,65.0645285 75.0422522,65.4634007 74.2112654,65.4614545 L5.78803115,65.4614545 C4.95728423,65.4614545 4.35994975,65.0642632 3.8719588,64.2451112 C3.47392218,63.5763436 3.47474859,62.5921228 3.8719588,61.9230014 L37.833653,4.72715229 C38.2309254,4.05963194 39.1709363,3.53845318 39.9996483,3.53845318 Z M39.9996483,20.3461058 C39.0180859,20.3461058 38.2224214,21.1381885 38.2224214,22.1153324 L38.2224214,46.8845754 C38.2224214,47.8617192 39.0180859,48.6538019 39.9996483,48.6538019 C40.9812107,48.6538019 41.7768751,47.8617192 41.7768751,46.8845754 L41.7768751,22.1153324 C41.7768751,21.1381885 40.9812107,20.3461058 39.9996483,20.3461058 Z M39.9996483,52.1922551 C38.5273402,52.1922551 37.333808,53.3804677 37.333808,54.846095 C37.333808,56.3118108 38.5273402,57.4999349 39.9996483,57.4999349 C41.4719474,57.4999349 42.6654886,56.3118108 42.6654886,54.846095 C42.6654886,53.3804677 41.4719474,52.1922551 39.9996483,52.1922551 Z" id="Shape"></path>
            </g>
        </g>
    </g>
</svg>